<?xml version="1.0" encoding="UTF-8" standalone="no"?>
<svg version="1.1" baseProfile="basic" id="Layer_1" width="456" height="456"
	 xmlns="http://www.w3.org/2000/svg" xmlns:xlink="http://www.w3.org/1999/xlink" x="0px" y="0px" viewBox="0 0 52.7 52.7"
	 xml:space="preserve">
<style type="text/css">
	.st0{fill:#0072BC;}
	.st1{fill:#FFFFFF;}
</style>
<path id="mark_background" class="st0" d="M7.5,0h37.6c4.2,0,7.5,3.4,7.5,7.5v37.6c0,4.2-3.4,7.5-7.5,7.5H7.5
	c-4.2,0-7.5-3.4-7.5-7.5V7.5C0,3.4,3.4,0,7.5,0z"/>
<g id="mark_text">
	<path class="st1" d="M6.9,18.9c0-1.5-0.1-1.9-1-2l-0.7-0.1c-0.2-0.1-0.1-0.4,0-0.5c1.1-0.1,2.5-0.2,4.4-0.2c1.3,0,2.5,0.1,3.4,0.6
		c0.9,0.4,1.6,1.2,1.6,2.5c0,1.5-0.9,2.2-2.1,2.8c0,0.2,0.2,0.3,0.4,0.3c1.1,0.2,2.7,1.2,2.7,3.4c0,2.4-1.8,4-5.4,4
		c-0.6,0-1.6-0.1-2.4-0.1s-1.6,0-2.3,0.1c-0.1-0.1-0.2-0.4,0-0.5l0.4-0.1c1.1-0.2,1.1-0.4,1.1-2.5C6.9,26.7,6.9,18.9,6.9,18.9z
		 M8.5,21.6c0,0.6,0,0.6,1.1,0.6c2.1-0.1,3.2-0.7,3.2-2.6s-1.5-2.8-3-2.8c-0.4,0-0.8,0-0.9,0.1c-0.2,0.1-0.3,0.2-0.3,0.5L8.5,21.6
		L8.5,21.6z M8.5,26.4c0,0.7,0,1.8,0.4,2.2c0.4,0.5,1,0.6,1.6,0.6c1.8,0,3.2-0.8,3.2-2.9c0-1.6-0.8-3.5-4.1-3.5
		c-1.1,0-1.2,0.1-1.2,0.5L8.5,26.4L8.5,26.4z"/>
	<path class="st1" d="M19.4,18.9c0-1.4-0.1-1.9-1-2L18,16.9c-0.2-0.1-0.2-0.4,0-0.5c1.7-0.1,3.4-0.2,5.1-0.2s3.2,0.1,4.5,0.6
		c2.8,1,4.1,3.3,4.1,6s-1.2,4.8-3.6,6.1c-1.3,0.7-3,1-4.6,1c-1.3,0-2.6-0.2-3.3-0.2c-0.9,0-1.6,0-2.5,0.1c-0.1-0.1-0.2-0.4,0-0.5
		l0.5-0.1c1.2-0.2,1.2-0.4,1.2-2.5L19.4,18.9L19.4,18.9z M21.1,26.2c0,1.1,0.1,1.7,0.4,2.2c0.5,0.6,1.2,0.8,2.5,0.8
		c4,0,5.7-2.6,5.7-6.4c0-2.2-1.1-6-6.4-6c-1.2,0-1.9,0.2-2,0.3c-0.2,0.1-0.2,0.6-0.2,1.5L21.1,26.2L21.1,26.2z"/>
	<path class="st1" d="M36.3,17.7c1.5-1.2,3.4-1.7,5.5-1.7c1.1,0,2.7,0.2,3.6,0.5c0.2,0.1,0.4,0.1,0.6,0.1c0,0.5,0.1,1.8,0.3,3
		c-0.1,0.1-0.4,0.2-0.5,0c-0.3-1.4-1.2-3-4.2-3c-3.1,0-5.8,2-5.8,6.2s2.7,6.6,6,6.6c2.6,0,3.8-1.7,4.3-2.9c0.1-0.1,0.5-0.1,0.5,0.1
		c-0.1,1.1-0.7,2.4-1,2.8c-0.2,0-0.5,0.1-0.7,0.2c-0.5,0.2-1.9,0.5-3.2,0.5c-1.8,0-3.6-0.4-5.1-1.4c-1.6-1.1-2.9-3-2.9-5.6
		C33.8,20.8,34.8,18.9,36.3,17.7L36.3,17.7z"/>
</g>
</svg>
