<?xml version="1.0" encoding="UTF-8"?><svg id="Layer_1" xmlns="http://www.w3.org/2000/svg" viewBox="0 0 52.65 52.65"><defs><style>.cls-1{fill:#0072bc;}.cls-2{fill:#fff;}</style></defs><path id="mark_background" class="cls-1" d="m7.52,0h37.6c4.15,0,7.52,3.37,7.52,7.52v37.6c0,4.15-3.37,7.52-7.52,7.52H7.52c-4.15,0-7.52-3.37-7.52-7.52V7.52C0,3.37,3.37,0,7.52,0Z"/><g id="mark_text"><path class="cls-2" d="m6.86,18.92c0-1.51-.08-1.89-1-1.98l-.65-.06c-.16-.12-.14-.43.02-.51,1.1-.1,2.49-.16,4.38-.16,1.28,0,2.51.1,3.42.57.88.43,1.55,1.24,1.55,2.55,0,1.47-.86,2.22-2.08,2.79,0,.2.16.27.39.31,1.1.2,2.73,1.22,2.73,3.4,0,2.36-1.75,3.95-5.42,3.95-.59,0-1.59-.06-2.45-.06s-1.59.04-2.34.06c-.12-.06-.16-.39-.04-.51l.37-.06c1.08-.18,1.12-.41,1.12-2.55v-7.74Zm1.67,2.71c0,.57.02.61,1.06.57,2.08-.08,3.2-.69,3.2-2.61s-1.49-2.75-3.04-2.75c-.45,0-.75.04-.94.12-.2.06-.29.16-.29.53v4.14Zm0,4.73c0,.73.04,1.77.43,2.22.39.47,1,.57,1.61.57,1.81,0,3.2-.81,3.2-2.85,0-1.61-.82-3.48-4.06-3.48-1.1,0-1.18.12-1.18.53v3.02Z"/><path class="cls-2" d="m19.39,18.92c0-1.43-.1-1.85-.96-1.98l-.45-.06c-.16-.1-.18-.43.02-.51,1.73-.1,3.38-.16,5.12-.16s3.16.12,4.48.61c2.75,1,4.14,3.32,4.14,6.01s-1.24,4.81-3.57,6.07c-1.32.71-3,.98-4.57.98-1.3,0-2.61-.16-3.32-.16-.86,0-1.59.02-2.55.06-.12-.06-.16-.39-.04-.51l.47-.06c1.18-.16,1.22-.41,1.22-2.55v-7.74Zm1.67,7.28c0,1.08.06,1.73.41,2.22.45.63,1.22.84,2.51.84,3.95,0,5.73-2.59,5.73-6.38,0-2.24-1.08-6.03-6.42-6.03-1.2,0-1.85.16-2.02.29-.16.12-.2.63-.2,1.55v7.52Z"/><path class="cls-2" d="m36.34,17.68c1.49-1.16,3.38-1.73,5.5-1.73,1.1,0,2.65.22,3.61.49.24.06.39.1.57.08.02.47.12,1.75.29,3-.1.14-.41.16-.55.04-.31-1.39-1.22-2.98-4.18-2.98-3.12,0-5.77,1.98-5.77,6.2s2.71,6.64,6.05,6.64c2.63,0,3.79-1.71,4.26-2.91.14-.1.45-.06.53.08-.14,1.06-.67,2.4-.98,2.79-.24.04-.49.12-.71.2-.45.16-1.92.47-3.22.47-1.83,0-3.59-.37-5.07-1.37-1.63-1.12-2.89-2.98-2.89-5.6,0-2.26,1.02-4.2,2.57-5.4Z"/></g></svg>